<svg width="105" height="105" viewBox="0 0 105 105" fill="none" xmlns="http://www.w3.org/2000/svg">
<g clip-path="url(#clip0_1047_857)">
<path d="M105 0H0V105H105V0Z" fill="#F7EBDA"/>
<path d="M11.1797 67.821H98.1397" stroke="#528195" stroke-width="4" stroke-miterlimit="10"/>
<path d="M20.3203 67.821V94.3575" stroke="#528195" stroke-width="4" stroke-miterlimit="10"/>
<path d="M50.2505 53.1334H44.5605V68.2249M59.8805 53.1334H65.7705V68.2249M60.4505 42.8704C60.4505 45.6988 58.1205 47.9817 55.2405 47.9817C52.3605 47.9817 50.0305 45.6887 50.0305 42.8704C50.0305 40.0521 52.3605 37.759 55.2405 37.759C58.1205 37.759 60.4505 40.0521 60.4505 42.8704Z" stroke="#528195" stroke-width="4" stroke-miterlimit="10"/>
<path d="M87.3604 42.8704C87.3604 45.6988 85.0304 47.9817 82.1504 47.9817C79.2704 47.9817 76.9404 45.6887 76.9404 42.8704C76.9404 40.0521 79.2704 37.759 82.1504 37.759C85.0304 37.759 87.3604 40.0521 87.3604 42.8704Z" stroke="#528195" stroke-width="4" stroke-miterlimit="10"/>
<path d="M71.8301 67.5579L76.3301 53.1331H88.7501L92.8501 67.5579" stroke="#528195" stroke-width="4" stroke-miterlimit="10"/>
<path d="M25.46 20.9199V67.8209" stroke="#528195" stroke-width="4" stroke-miterlimit="10"/>
<path d="M44.0501 33.7288C44.0501 39.5876 39.3401 44.3555 33.5401 44.3555C30.2901 44.3555 27.3901 42.8605 25.4601 40.527C23.5301 42.8706 20.6301 44.3555 17.3801 44.3555C11.5801 44.3555 6.87012 39.5977 6.87012 33.7288C6.87012 28.6882 10.3401 24.4759 14.9901 23.3849C14.9601 23.0415 14.9401 22.698 14.9401 22.3445C14.9401 16.4856 19.6501 11.7178 25.4601 11.7178C31.2701 11.7178 35.9801 16.4755 35.9801 22.3445C35.9801 22.698 35.9601 23.0415 35.9301 23.3849C40.5801 24.4759 44.0501 28.6983 44.0501 33.7288Z" stroke="#528195" stroke-width="4" stroke-miterlimit="10"/>
<path d="M25.4601 34.6893L18.8701 28.0315" stroke="#528195" stroke-width="4" stroke-miterlimit="10"/>
<path d="M25.46 34.6893L32.05 28.0315" stroke="#528195" stroke-width="4" stroke-miterlimit="10"/>
<path d="M20.3203 81.0844L33.6503 67.6091" stroke="#528195" stroke-width="4" stroke-miterlimit="10"/>
<path d="M72.6602 67.6091L86.0002 81.0844" stroke="#528195" stroke-width="4" stroke-miterlimit="10"/>
<path d="M11.1797 81.0842H98.1397" stroke="#528195" stroke-width="4" stroke-miterlimit="10"/>
<path d="M86.5703 67.5583V94.3574" stroke="#528195" stroke-width="4" stroke-miterlimit="10"/>
</g>
<defs>
<clipPath id="clip0_1047_857">
<rect width="105" height="105" fill="white"/>
</clipPath>
</defs>
</svg>
