<svg width="105" height="105" viewBox="0 0 105 105" fill="none" xmlns="http://www.w3.org/2000/svg">
<g clip-path="url(#clip0_1047_840)">
<path d="M105 0H0V105H105V0Z" fill="#F7EBDA"/>
<path d="M24.9704 68.53H79.3904V49.71H24.9704V68.53ZM70.0203 63.35C71.2103 63.35 72.2103 62.9301 73.0303 62.1101C73.8503 61.2901 74.2604 60.27 74.2604 59.09C74.2604 57.91 73.8503 56.9001 73.0203 56.0801C72.1903 55.2601 71.1904 54.85 70.0004 54.85C68.8104 54.85 67.8103 55.26 66.9903 56.09C66.1703 56.92 65.7604 57.9301 65.7604 59.1101C65.7604 60.2901 66.1704 61.3 67.0004 62.12C67.8304 62.94 68.8303 63.35 70.0203 63.35ZM34.3703 63.35C35.5503 63.35 36.5604 62.9301 37.3804 62.1101C38.2004 61.2801 38.6104 60.27 38.6104 59.09C38.6104 57.91 38.2003 56.9001 37.3703 56.0801C36.5403 55.2601 35.5303 54.85 34.3503 54.85C33.1703 54.85 32.1604 55.26 31.3404 56.09C30.5204 56.92 30.1104 57.9301 30.1104 59.1101C30.1104 60.2901 30.5304 61.3 31.3504 62.12C32.1804 62.94 33.1803 63.35 34.3703 63.35ZM26.4804 46.09H77.8904L72.0504 29.68H32.3204L26.4804 46.09ZM25.7004 72.1501V78.09C25.7004 78.61 25.5204 79.0401 25.1704 79.3701C24.8204 79.7001 24.3804 79.8701 23.8604 79.8701H23.2104C22.6704 79.8701 22.2304 79.7001 21.8804 79.3701C21.5304 79.0401 21.3604 78.61 21.3604 78.09V49.69L29.0804 27.83C29.2704 27.27 29.6104 26.8301 30.1104 26.5201C30.6104 26.2101 31.1604 26.05 31.7704 26.05H72.9203C73.4703 26.05 73.9604 26.2101 74.3904 26.5301C74.8104 26.8501 75.1204 27.28 75.3004 27.83L83.0203 49.69V78.09C83.0203 78.61 82.8403 79.0401 82.4903 79.3701C82.1403 79.7001 81.7004 79.8701 81.1804 79.8701H80.5303C79.9903 79.8701 79.5503 79.7001 79.2003 79.3701C78.8503 79.0401 78.6703 78.61 78.6703 78.09V72.1501H25.7004Z" fill="#528195"/>
</g>
<defs>
<clipPath id="clip0_1047_840">
<rect width="105" height="105" fill="white"/>
</clipPath>
</defs>
</svg>
