<svg width="105" height="105" viewBox="0 0 105 105" fill="none" xmlns="http://www.w3.org/2000/svg">
<g clip-path="url(#clip0_1047_802)">
<path d="M105 0H0V105H105V0Z" fill="#F7EBDA"/>
<path d="M20.4097 31H14.7197V45.94M30.0397 31H35.9297V45.94M30.6097 20.84C30.6097 23.64 28.2797 25.9 25.3997 25.9C22.5197 25.9 20.1897 23.63 20.1897 20.84C20.1897 18.05 22.5197 15.78 25.3997 15.78C28.2797 15.78 30.6097 18.05 30.6097 20.84Z" stroke="#528195" stroke-width="4" stroke-miterlimit="10"/>
<path d="M75.3492 31H69.6592V45.94M84.9792 31H90.8692V45.94M85.5492 20.84C85.5492 23.64 83.2192 25.9 80.3392 25.9C77.4592 25.9 75.1292 23.63 75.1292 20.84C75.1292 18.05 77.4592 15.78 80.3392 15.78C83.2192 15.78 85.5492 18.05 85.5492 20.84Z" stroke="#528195" stroke-width="4" stroke-miterlimit="10"/>
<path d="M9.01953 45.95H95.9795" stroke="#528195" stroke-width="4" stroke-miterlimit="10"/>
<path d="M9.01953 89.22H95.9795" stroke="#528195" stroke-width="4" stroke-miterlimit="10"/>
<path d="M57.5196 20.84C57.5196 23.64 55.1896 25.9 52.3096 25.9C49.4296 25.9 47.0996 23.63 47.0996 20.84C47.0996 18.05 49.4296 15.78 52.3096 15.78C55.1896 15.78 57.5196 18.05 57.5196 20.84Z" stroke="#528195" stroke-width="4" stroke-miterlimit="10"/>
<path d="M41.9893 45.28L46.4893 31H58.9093L63.0093 45.28" stroke="#528195" stroke-width="4" stroke-miterlimit="10"/>
<path d="M47.3892 74.2801H41.6992V89.2201M57.0192 74.2801H62.9092V89.2201M57.5892 64.1201C57.5892 66.9201 55.2592 69.1801 52.3792 69.1801C49.4992 69.1801 47.1692 66.9101 47.1692 64.1201C47.1692 61.3301 49.4992 59.0601 52.3792 59.0601C55.2592 59.0601 57.5892 61.3301 57.5892 64.1201Z" stroke="#528195" stroke-width="4" stroke-miterlimit="10"/>
<path d="M85.3595 64.1201C85.3595 66.9201 83.0295 69.1801 80.1495 69.1801C77.2695 69.1801 74.9395 66.9101 74.9395 64.1201C74.9395 61.3301 77.2695 59.0601 80.1495 59.0601C83.0295 59.0601 85.3595 61.3301 85.3595 64.1201Z" stroke="#528195" stroke-width="4" stroke-miterlimit="10"/>
<path d="M69.8193 88.56L74.3293 74.28H86.7393L90.8493 88.56" stroke="#528195" stroke-width="4" stroke-miterlimit="10"/>
<path d="M30.4102 64.1201C30.4102 66.9201 28.0802 69.1801 25.2002 69.1801C22.3202 69.1801 19.9902 66.9101 19.9902 64.1201C19.9902 61.3301 22.3202 59.0601 25.2002 59.0601C28.0802 59.0601 30.4102 61.3301 30.4102 64.1201Z" stroke="#528195" stroke-width="4" stroke-miterlimit="10"/>
<path d="M14.8799 88.56L19.3899 74.28H31.7999L35.9099 88.56" stroke="#528195" stroke-width="4" stroke-miterlimit="10"/>
</g>
<defs>
<clipPath id="clip0_1047_802">
<rect width="105" height="105" fill="white"/>
</clipPath>
</defs>
</svg>
