<svg width="105" height="105" viewBox="0 0 105 105" fill="none" xmlns="http://www.w3.org/2000/svg">
<g clip-path="url(#clip0_1047_819)">
<path d="M105 0H0V105H105V0Z" fill="#F7EBDA"/>
<path d="M52.5 26.75V91.77" stroke="#528195" stroke-width="4" stroke-miterlimit="10"/>
<path d="M52.5002 38.2799L45.4102 31.1899" stroke="#528195" stroke-width="4" stroke-miterlimit="10"/>
<path d="M52.5 38.2799L59.59 31.1899" stroke="#528195" stroke-width="4" stroke-miterlimit="10"/>
<path d="M81.3299 47.02C81.3299 56.02 74.0299 63.33 65.0299 63.33C59.9899 63.33 55.4899 61.04 52.4999 57.45C49.5099 61.04 45.0099 63.33 39.9699 63.33C30.9699 63.33 23.6699 56.02 23.6699 47.02C23.6699 39.29 29.0499 32.81 36.2599 31.14C36.2199 30.61 36.1899 30.08 36.1899 29.54C36.1899 20.54 43.4899 13.23 52.4999 13.23C61.5099 13.23 68.8099 20.54 68.8099 29.54C68.8099 30.08 68.7799 30.61 68.7399 31.14C75.9499 32.81 81.3299 39.29 81.3299 47.02Z" stroke="#528195" stroke-width="4.51" stroke-miterlimit="10"/>
<path d="M52.5003 57.4502L42.2803 47.2402" stroke="#528195" stroke-width="4" stroke-miterlimit="10"/>
<path d="M52.5 57.4502L62.72 47.2402" stroke="#528195" stroke-width="4" stroke-miterlimit="10"/>
</g>
<defs>
<clipPath id="clip0_1047_819">
<rect width="105" height="105" fill="white"/>
</clipPath>
</defs>
</svg>
