<svg width="105" height="105" viewBox="0 0 105 105" fill="none" xmlns="http://www.w3.org/2000/svg">
<g clip-path="url(#clip0_1047_884)">
<path d="M105 0H0V105H105V0Z" fill="#F7EBDA"/>
<path d="M20.2004 42.0801C18.6704 43.9501 15.4904 44.6901 11.9704 44.6901C11.4604 44.6901 10.8904 44.6301 10.4404 44.5801V40.2101C16.8604 40.2101 20.4304 37.8801 21.2804 33.0601H25.2504V71.9401H20.2004V42.0801Z" fill="#528195"/>
<path d="M33.1406 65.9202H38.8706V71.9402H33.1406V65.9202Z" fill="#528195"/>
<path d="M44.2708 60.0201L49.2108 59.2801C49.1508 64.2801 51.6508 68.3601 57.1608 68.3601C62.3808 68.3601 65.3308 65.6401 65.3308 60.7501C65.3308 55.8601 61.8708 53.8801 57.5008 53.8801H54.3208V49.3401H56.8208C60.5708 49.3401 63.8008 47.1801 63.8008 43.2101C63.8008 39.2401 61.3608 36.5701 57.1008 36.5701C50.6308 36.5701 49.7808 42.7001 49.8908 44.9701L44.7808 44.1801C44.8908 37.2601 49.9508 32.3701 57.1008 32.3701C63.3408 32.3701 68.7908 35.7201 68.7908 43.2701C68.7908 46.3901 67.0308 49.4001 64.0808 50.9901C68.4508 52.2401 70.3808 56.6101 70.3808 60.7001C70.3808 68.6501 64.3608 72.6201 57.1508 72.6201C48.8108 72.6201 44.1508 67.2801 44.2708 60.0201Z" fill="#528195"/>
<path d="M73.9209 60.27H75.4209V67.06L78.9109 63.61H80.9509L77.6509 66.66L81.1009 71.95H79.3509L76.6009 67.66L75.4309 68.76V71.95H73.9309V60.28L73.9209 60.27Z" fill="#528195"/>
<path d="M82.2012 63.5999H83.6812V64.8499C83.7812 64.5999 83.9512 64.3199 84.3012 64.0299C84.6812 63.7099 85.2812 63.3999 86.2512 63.3999C87.5712 63.3999 88.5212 64.0499 88.9212 65.1699C89.0912 64.7199 89.3412 64.3699 89.7212 64.0399C90.1212 63.7099 90.6512 63.4099 91.6712 63.4099C93.5412 63.4099 94.5612 64.4799 94.5612 66.5499V71.9499H93.0312V67.0499C93.0312 66.2699 93.0312 65.5799 92.5312 65.1199C92.0612 64.6699 91.4512 64.6499 91.1312 64.6499C90.6312 64.6499 90.2112 64.8199 89.9012 65.0999C89.5012 65.4699 89.1312 66.0199 89.1312 67.3499V71.9499H87.6012V67.0499C87.6012 66.2699 87.6012 65.5799 87.1012 65.1199C86.6312 64.6699 86.0212 64.6499 85.7012 64.6499C85.1812 64.6499 84.7712 64.8299 84.4712 65.0999C84.0712 65.4699 83.7012 66.0199 83.7012 67.3499V71.9499H82.2212V63.6099L82.2012 63.5999Z" fill="#528195"/>
</g>
<defs>
<clipPath id="clip0_1047_884">
<rect width="105" height="105" fill="white"/>
</clipPath>
</defs>
</svg>
