<svg width="105" height="105" viewBox="0 0 105 105" fill="none" xmlns="http://www.w3.org/2000/svg">
<g clip-path="url(#clip0_1047_828)">
<path d="M105 0H0V105H105V0Z" fill="#F7EBDA"/>
<path d="M9.01953 57.8201H95.9795" stroke="#528195" stroke-width="4" stroke-miterlimit="10"/>
<path d="M85.3398 57.8201V84.0901" stroke="#528195" stroke-width="4" stroke-miterlimit="10"/>
<path d="M19.6602 57.8201V84.0901" stroke="#528195" stroke-width="4" stroke-miterlimit="10"/>
<path d="M20.1099 43.5401H14.4199V58.4801M29.7499 43.5401H35.6399V58.4801M30.3099 33.3801C30.3099 36.1801 27.9799 38.4401 25.0999 38.4401C22.2199 38.4401 19.8899 36.1701 19.8899 33.3801C19.8899 30.5901 22.2199 28.3201 25.0999 28.3201C27.9799 28.3201 30.3099 30.5901 30.3099 33.3801Z" stroke="#528195" stroke-width="4" stroke-miterlimit="10"/>
<path d="M75.0601 43.5401H69.3701V58.4801M84.6901 43.5401H90.5801V58.4801M85.2501 33.3801C85.2501 36.1801 82.9201 38.4401 80.0401 38.4401C77.1601 38.4401 74.8301 36.1701 74.8301 33.3801C74.8301 30.5901 77.1601 28.3201 80.0401 28.3201C82.9201 28.3201 85.2501 30.5901 85.2501 33.3801Z" stroke="#528195" stroke-width="4" stroke-miterlimit="10"/>
<path d="M57.2198 33.3801C57.2198 36.1801 54.8898 38.4401 52.0098 38.4401C49.1298 38.4401 46.7998 36.1701 46.7998 33.3801C46.7998 30.5901 49.1298 28.3201 52.0098 28.3201C54.8898 28.3201 57.2198 30.5901 57.2198 33.3801Z" stroke="#528195" stroke-width="4" stroke-miterlimit="10"/>
<path d="M41.6895 57.82L46.1995 43.54H58.6095L62.7195 57.82" stroke="#528195" stroke-width="4" stroke-miterlimit="10"/>
</g>
<defs>
<clipPath id="clip0_1047_828">
<rect width="105" height="105" fill="white"/>
</clipPath>
</defs>
</svg>
