<svg width="105" height="105" viewBox="0 0 105 105" fill="none" xmlns="http://www.w3.org/2000/svg">
<g clip-path="url(#clip0_374_451)">
<path d="M105 0H0V105H105V0Z" fill="#F7EBDA"/>
<path d="M20.1999 42.0801C18.6699 43.9501 15.4899 44.6901 11.9699 44.6901C11.4599 44.6901 10.8899 44.6301 10.4399 44.5801V40.2101C16.8599 40.2101 20.4299 37.8801 21.2799 33.0601H25.2499V71.9401H20.1999V42.0801Z" fill="#528195"/>
<path d="M33.1399 65.9202H38.8699V71.9402H33.1399V65.9202Z" fill="#528195"/>
<path d="M44.2698 60.0201L49.2098 59.2801C49.1498 64.2801 51.6498 68.3601 57.1598 68.3601C62.3798 68.3601 65.3298 65.6401 65.3298 60.7501C65.3298 55.8601 61.8698 53.8801 57.4998 53.8801H54.3198V49.3401H56.8198C60.5698 49.3401 63.7998 47.1801 63.7998 43.2101C63.7998 39.2401 61.3598 36.5701 57.0998 36.5701C50.6298 36.5701 49.7798 42.7001 49.8898 44.9701L44.7798 44.1801C44.8898 37.2601 49.9498 32.3701 57.0998 32.3701C63.3398 32.3701 68.7898 35.7201 68.7898 43.2701C68.7898 46.3901 67.0298 49.4001 64.0798 50.9901C68.4498 52.2401 70.3798 56.6101 70.3798 60.7001C70.3798 68.6501 64.3598 72.6201 57.1498 72.6201C48.8098 72.6201 44.1498 67.2801 44.2698 60.0201Z" fill="#528195"/>
<path d="M73.9199 60.27H75.4199V67.06L78.9099 63.61H80.9499L77.6499 66.66L81.0999 71.95H79.3499L76.5999 67.66L75.4299 68.76V71.95H73.9299V60.28L73.9199 60.27Z" fill="#528195"/>
<path d="M82.2 63.5999H83.68V64.8499C83.78 64.5999 83.95 64.3199 84.3 64.0299C84.68 63.7099 85.28 63.3999 86.25 63.3999C87.57 63.3999 88.52 64.0499 88.92 65.1699C89.09 64.7199 89.34 64.3699 89.72 64.0399C90.12 63.7099 90.65 63.4099 91.67 63.4099C93.54 63.4099 94.56 64.4799 94.56 66.5499V71.9499H93.03V67.0499C93.03 66.2699 93.03 65.5799 92.53 65.1199C92.06 64.6699 91.45 64.6499 91.13 64.6499C90.63 64.6499 90.21 64.8199 89.9 65.0999C89.5 65.4699 89.13 66.0199 89.13 67.3499V71.9499H87.6V67.0499C87.6 66.2699 87.6 65.5799 87.1 65.1199C86.63 64.6699 86.02 64.6499 85.7 64.6499C85.18 64.6499 84.77 64.8299 84.47 65.0999C84.07 65.4699 83.7 66.0199 83.7 67.3499V71.9499H82.22V63.6099L82.2 63.5999Z" fill="#528195"/>
</g>
<defs>
<clipPath id="clip0_374_451">
<rect width="105" height="105" fill="white"/>
</clipPath>
</defs>
</svg>
