<svg width="105" height="105" viewBox="0 0 105 105" fill="none" xmlns="http://www.w3.org/2000/svg">
<g clip-path="url(#clip0_1047_794)">
<path d="M105 0H0V105H105V0Z" fill="#F7EBDA"/>
<path d="M74.9998 31H63.5398M57.4698 59.46L69.6798 31.01M27.6398 59.46L39.8498 31.01H29.4598V35.54M91.1898 60.65C91.1898 68.02 84.9998 74 77.3598 74C69.7198 74 63.5298 68.02 63.5298 60.65C63.5298 53.28 69.7198 47.3 77.3598 47.3C84.9998 47.3 91.1898 53.28 91.1898 60.65ZM41.4598 60.65C41.4598 68.02 35.2698 74 27.6298 74C19.9898 74 13.7998 68.02 13.7998 60.65C13.7998 53.28 19.9898 47.3 27.6298 47.3C35.2698 47.3 41.4598 53.28 41.4598 60.65Z" stroke="#528195" stroke-width="4" stroke-miterlimit="10"/>
<path d="M35 43.01L56.53 58.24H77.12L65.25 39H36.51" stroke="#528195" stroke-width="4" stroke-miterlimit="10"/>
</g>
<defs>
<clipPath id="clip0_1047_794">
<rect width="105" height="105" fill="white"/>
</clipPath>
</defs>
</svg>
