<svg width="96" height="25" viewBox="0 0 96 25" fill="none" xmlns="http://www.w3.org/2000/svg">
<path d="M3.37026 1.47901C5.17904 1.47901 5.85027 1.88635 5.85027 2.93489C5.85027 3.214 5.77255 3.46294 5.61004 3.66661C5.26383 4.11167 4.57141 4.33798 3.71648 4.29272H3.67408L3.17243 5.68826H3.68115C4.67739 5.65808 5.54645 5.98999 5.98451 6.57084C6.19648 6.83486 6.2954 7.14414 6.2954 7.47606C6.2954 8.58495 5.39101 9.14316 3.61049 9.14316C3.31374 9.14316 2.82622 9.14316 2.51533 9.12807C2.45174 7.67219 2.44468 5.68826 2.44468 5.09987C2.44468 4.40587 2.47294 2.85946 2.51533 1.53935C2.71317 1.50164 3.05938 1.47146 3.37026 1.47901ZM0.0211966 0.468182C0.091852 1.51672 0.148376 4.14185 0.148376 5.09987C0.148376 5.97491 0.134245 8.93194 0.0141311 10.2143L0 10.3199H4.33118C6.44377 10.3199 8.70475 9.60331 8.70475 7.58921C8.70475 6.32191 7.84982 5.39406 6.24594 4.88111C7.41882 4.54919 8.22429 3.67415 8.22429 2.67087C8.22429 1.03394 6.45084 0.407834 4.7975 0.370117H0.0211966V0.475726V0.468182Z" fill="#F7EBDA"/>
<path d="M18.6887 0.362305H16.5831L16.675 2.86673C16.7103 4.11895 16.7527 5.38625 16.8304 6.62338C16.6891 6.2462 16.569 6.04253 15.9402 5.05434C15.919 5.01662 13.7357 1.41839 12.9727 0.400022L12.9515 0.369848H10.4997V0.467913C10.5774 1.51645 10.6269 4.13403 10.6269 5.0996C10.6269 5.97464 10.6198 8.93922 10.4926 10.2141L10.4785 10.3197H12.6547V10.2216C12.5205 7.78507 12.5205 5.34099 12.5205 2.97234C12.5911 3.25145 12.7042 3.50793 13.0433 4.05106C13.0786 4.1114 16.8163 9.93496 17 10.282L17.0212 10.3197H18.7735L18.7593 10.2141C18.6322 8.93922 18.6251 5.98218 18.6251 5.0996C18.6251 4.13403 18.6816 1.50891 18.7452 0.467913V0.369848H18.6816L18.6887 0.362305Z" fill="#F7EBDA"/>
<path d="M24.397 1.56171C25.6123 1.53908 26.4601 1.80311 26.8699 2.34623C27.0536 2.59517 27.1525 2.89691 27.1525 3.25145C27.1525 4.69225 25.6405 4.99399 24.3758 4.99399L23.86 4.9789C23.86 4.9789 23.7328 4.95627 23.6551 4.94873C23.648 4.61682 23.641 4.18684 23.641 3.68897C23.641 3.05532 23.648 2.3236 23.6692 1.63715C23.8317 1.60698 24.1144 1.5768 24.3899 1.56926M21.2175 0.46037C21.2881 1.50891 21.3376 4.13403 21.3376 5.09205C21.3376 5.97464 21.3305 8.92413 21.1963 10.2065V10.3046H23.7823L23.7681 10.2065C23.6834 9.29376 23.648 7.55122 23.6339 6.20094C23.7399 6.20094 24.1073 6.22357 24.1073 6.22357L24.4747 6.2462C27.8944 6.2462 29.5548 5.26555 29.5548 3.25145C29.5548 0.943151 27.2232 0.415109 25.2731 0.362305H21.2034V0.46037H21.2175Z" fill="#F7EBDA"/>
<path d="M37.6946 1.56171C38.9099 1.53908 39.7577 1.80311 40.1746 2.34623C40.3583 2.59517 40.4502 2.89691 40.4502 3.25145C40.4502 4.69225 38.9452 4.99399 37.6734 4.99399L37.1576 4.9789C37.1576 4.9789 37.0304 4.95627 36.9527 4.94873C36.9457 4.61682 36.9386 4.1793 36.9386 3.68897C36.9386 3.05532 36.9527 2.33115 36.9739 1.63715C37.1364 1.60698 37.412 1.5768 37.6946 1.56926M34.5151 0.46037C34.5858 1.50891 34.6423 4.13403 34.6423 5.09205C34.6423 5.97464 34.6352 8.92413 34.501 10.2065V10.3046H37.087L37.0728 10.2065C36.981 9.29376 36.9527 7.55122 36.9386 6.20094C37.0446 6.20094 37.412 6.22357 37.412 6.22357L37.7794 6.2462C41.192 6.2462 42.8595 5.26555 42.8595 3.25145C42.8595 0.943151 40.5349 0.415109 38.5778 0.362305H34.508V0.46037H34.5151Z" fill="#F7EBDA"/>
<path d="M46.9652 3.29671C47.1701 3.76441 47.7 5.0996 48.3006 6.66864C48.2087 6.66864 48.1027 6.66864 48.1027 6.66864L46.9652 6.68372C46.9652 6.68372 45.7852 6.66109 45.6015 6.65355C46.082 5.38625 46.5554 4.25473 46.9652 3.28917M46.3364 0.362305H46.294L46.2728 0.415109C45.7923 1.82574 42.6905 9.05991 42.203 10.1688L42.1465 10.3046H44.3721L44.3863 10.2442C44.577 9.56533 44.8243 8.79589 45.1211 7.96611C45.2059 7.96611 46.9581 7.93594 46.9581 7.93594L48.4701 7.95103C48.4701 7.95103 48.7386 7.96611 48.8022 7.96611C49.205 9.03728 49.5017 9.85198 49.636 10.2518L49.6501 10.3046H52.2219L48.0745 0.362305H46.3364Z" fill="#F7EBDA"/>
<path d="M53.2529 0.460268C53.3165 1.50881 53.373 4.12639 53.373 5.09195C53.373 5.96699 53.3659 8.92403 53.2387 10.1989L53.2246 10.3045H55.8177V10.1989C55.6764 8.91649 55.6693 5.96699 55.6693 5.08441C55.6693 4.39795 55.6975 2.844 55.747 1.60687C55.959 1.5767 56.2487 1.55407 56.4465 1.54653C57.6618 1.5239 58.5167 1.79546 58.9194 2.33105C59.1031 2.57998 59.2021 2.88172 59.2021 3.23626C59.2021 4.38287 58.1917 4.96371 57.252 5.02406C56.9411 5.03915 56.7009 4.99389 56.7009 4.99389L56.5242 4.96371L56.6373 5.14476C57.5417 6.57802 58.9265 9.08244 59.5059 10.2668L59.5271 10.312H62.3038L62.219 10.1612C62.1201 10.0027 60.3043 7.15132 59.5341 5.92928C59.5341 5.92928 59.5059 5.89156 59.4847 5.85384C60.8978 5.40124 61.5902 4.54128 61.5902 3.23626C61.5902 0.935507 59.2586 0.399921 57.3085 0.35466H53.2387L53.2458 0.452725L53.2529 0.460268Z" fill="#F7EBDA"/>
<path d="M65.9922 0.35466H63.5051V0.452725C63.5828 1.50127 63.6394 4.12639 63.6394 5.08441C63.6394 5.95945 63.6252 8.91649 63.498 10.1989V10.3045H66.077V10.1989C65.9427 8.91649 65.9286 5.96699 65.9286 5.08441C65.9286 4.11885 65.9781 1.49372 66.0487 0.452725V0.35466H65.9851H65.9922Z" fill="#F7EBDA"/>
<path d="M71.7643 1.47901C73.5731 1.47901 74.2443 1.88635 74.2443 2.93489C74.2443 3.214 74.1596 3.46294 73.997 3.66661C73.6579 4.11167 72.9655 4.33798 72.1105 4.29272H72.0682L71.5736 5.68826H72.0823C73.0785 5.65808 73.9405 5.98999 74.3857 6.57084C74.5906 6.83486 74.6965 7.14414 74.6965 7.47606C74.6965 8.58495 73.7921 9.14316 72.0116 9.14316C71.7078 9.14316 71.2203 9.14316 70.9165 9.12807C70.8529 7.67219 70.8529 5.68826 70.8529 5.09987C70.8529 4.40587 70.8811 2.85192 70.9235 1.53935C71.1214 1.50164 71.4605 1.47146 71.7714 1.47901M68.4223 0.468182C68.493 1.51672 68.5425 4.14185 68.5425 5.09987C68.5425 5.97491 68.5354 8.93194 68.4082 10.2143V10.3199H72.7252C74.8449 10.3199 77.0988 9.60331 77.0988 7.58921C77.0988 6.32191 76.2439 5.39406 74.64 4.88111C75.8129 4.54919 76.6184 3.67415 76.6184 2.67087C76.6184 1.03394 74.852 0.407834 73.1916 0.370117H68.4153L68.4223 0.468182Z" fill="#F7EBDA"/>
<path d="M82.4058 3.28914C82.6107 3.75684 83.1407 5.09203 83.7483 6.65353C83.6564 6.65353 83.5505 6.66107 83.5505 6.66107L82.4058 6.6837C82.4058 6.6837 81.233 6.65353 81.0422 6.65353C81.5226 5.38622 81.996 4.25471 82.4058 3.28914ZM83.4798 0.354736H81.7346L81.7134 0.407541C81.2047 1.90869 77.9192 9.54267 77.6437 10.1688L77.5801 10.3046H79.8057L79.8199 10.2442C80.0106 9.5653 80.265 8.79587 80.5547 7.96609C80.6324 7.96609 82.3917 7.93591 82.3917 7.93591L83.9108 7.95854C83.9108 7.95854 84.1722 7.95854 84.2429 7.95854C84.6456 9.02972 84.9424 9.83687 85.0696 10.2442L85.0837 10.297H87.6555L83.5151 0.354736H83.4727H83.4798Z" fill="#F7EBDA"/>
<path d="M88.3896 2.93441C88.3896 4.68449 90.043 5.39357 91.4914 6.01968C92.6219 6.51001 93.7877 7.01542 93.7877 7.8452C93.7877 8.10168 93.7312 8.30535 93.604 8.45622C93.3355 8.79568 92.7844 8.939 91.9083 8.89374C91.0534 8.84848 90.0712 8.55428 88.9902 8.0187L88.538 7.7924V8.17711V9.96491L88.8348 10.0328L89.0114 10.0705C89.5555 10.2063 90.5941 10.4703 91.6398 10.4703C94.3742 10.4703 96.0063 9.31617 96.0063 7.38505C96.0063 5.5897 94.3247 4.87308 92.8339 4.23942C91.7387 3.77173 90.6012 3.28895 90.6012 2.52706C90.6012 2.30076 90.6012 1.63693 92.0072 1.63693C93.06 1.63693 94.0915 2.08954 94.6427 2.33847L95.1796 2.57232V2.19515V0.39226L94.6497 0.286652C94.1198 0.181043 93.2437 0 92.3252 0C89.9723 0 88.3967 1.17678 88.3967 2.91932" fill="#F7EBDA"/>
<path d="M4.03442 14.5968C5.96332 14.5968 8.26668 15.1701 8.26668 17.4483C8.26668 18.7231 7.57426 19.5755 6.19648 20.0281C6.39432 20.4581 8.6129 24.0563 8.9803 24.426H6.23181C5.63124 23.2039 4.26052 20.7372 3.26428 19.138C3.43385 19.1757 3.68821 19.2059 3.9779 19.2059C4.77631 19.2059 5.91386 18.5949 5.91386 17.4558C5.91386 16.0376 4.30998 15.7812 3.50451 15.7812C3.09471 15.7812 2.7061 15.8113 2.50827 15.8415C2.45881 17.0635 2.43055 18.5949 2.43055 19.2813C2.43055 20.1488 2.43055 23.0531 2.57892 24.4335H0C0.12718 23.0681 0.155442 21.3181 0.155442 19.2813C0.155442 17.569 0.141311 15.5171 0.0282622 14.6119H4.03442V14.5968Z" fill="#F7EBDA"/>
<path d="M17.2826 14.5969V16.0226C16.0038 15.8718 14.732 15.8944 13.446 15.8944C13.1069 15.8944 12.8313 15.9095 12.3438 15.9246C12.3226 16.8524 12.3014 17.9613 12.3014 18.7307L15.6646 18.6478V20.1338L12.2873 20.0508C12.3014 20.9108 12.3155 22.1404 12.3509 23.1512C14.089 23.121 15.813 23.1135 17.5299 23.0003V24.4185H9.87793C9.99804 23.0531 10.0122 20.1338 10.0122 19.2814C10.0122 18.3234 9.95565 15.7284 9.89206 14.5969H17.2756H17.2826Z" fill="#F7EBDA"/>
<path d="M24.3549 20.8126C23.7473 19.2662 23.2244 17.9461 23.0407 17.486C22.6168 18.4365 22.1575 19.5604 21.67 20.8126C22.0657 20.8277 22.6027 20.8428 23.0407 20.8428C23.4788 20.8428 23.9098 20.8277 24.3549 20.8126ZM24.1359 14.5968C24.4892 15.6077 27.5132 22.789 28.2268 24.4184H25.6903C25.549 23.9658 25.2452 23.1511 24.8495 22.1026C24.3267 22.0875 23.7826 22.0724 23.0407 22.0724C22.3412 22.0724 21.8184 22.0875 21.2107 22.1026C20.9211 22.9324 20.6808 23.6867 20.4759 24.4184H18.2715C18.7943 23.1964 21.882 16.0376 22.3695 14.5968H24.1429H24.1359Z" fill="#F7EBDA"/>
<path d="M36.2467 24.4185H29.0469C29.1741 23.0531 29.1741 20.1338 29.1741 19.2814C29.1741 18.3309 29.1246 15.7284 29.0469 14.5969H31.5693C31.5057 15.736 31.4492 18.3159 31.4492 19.2814C31.4492 19.9302 31.4633 21.7557 31.5057 23.1512H32.8623C34.2542 23.1512 35.2787 23.0682 36.2537 22.9853V24.4185H36.2467Z" fill="#F7EBDA"/>
<path d="M47.9679 14.5968V16.0225C46.6961 15.8717 45.4173 15.8943 44.1313 15.8943C43.7851 15.8943 43.5166 15.9094 43.0291 15.9245C43.0009 16.8523 42.9867 17.9612 42.9867 18.7306L46.3499 18.6477V20.1337L42.9726 20.0508C42.9867 20.9107 43.0009 22.1403 43.0362 23.1511C44.7743 23.1209 46.4912 23.1134 48.2152 23.0002V24.4184H40.5703C40.6904 23.0531 40.7046 20.1337 40.7046 19.2813C40.7046 18.3233 40.648 15.7284 40.5844 14.5968H47.9679Z" fill="#F7EBDA"/>
<path d="M53.3946 14.4001C54.5251 14.4001 55.5637 14.5812 56.2208 14.7773V16.9347C55.4224 16.4595 54.5534 16.0144 53.0908 16.0144C51.7766 16.0144 51.6989 16.5274 51.6989 16.897C51.6989 18.6773 57.0334 18.4434 57.0334 21.5589C57.0334 23.4825 55.4295 24.614 52.7234 24.614C51.4728 24.614 50.3847 24.3726 49.664 24.1086V21.9662C51.3032 22.796 52.3418 23.0751 53.2745 23.0751C54.3131 23.0751 54.8501 22.7508 54.8501 22.0266C54.8501 20.103 49.5156 20.3897 49.5156 17.1158C49.5156 15.3883 51.063 14.4077 53.3946 14.4077" fill="#F7EBDA"/>
<path d="M65.8646 14.5969V16.0226C64.6422 15.8869 64.2607 15.8567 62.8546 15.8265C62.8193 17.0184 62.8052 18.5799 62.8052 19.2663C62.8052 20.1263 62.8052 23.0531 62.9465 24.4185H60.3746C60.5018 23.0531 60.5301 20.1263 60.5301 19.2663C60.5301 18.5799 60.4948 17.0184 60.4665 15.8265C59.0746 15.8567 58.693 15.8793 57.4707 16.0226V14.5969H65.8716H65.8646Z" fill="#F7EBDA"/>
<path d="M71.0514 20.8127C70.4438 19.2663 69.9209 17.9462 69.7372 17.4861C69.3204 18.4365 68.8611 19.5605 68.3736 20.8127C68.7693 20.8278 69.3062 20.8429 69.7372 20.8429C70.1682 20.8429 70.6063 20.8278 71.0514 20.8127ZM70.8253 14.5969C71.1786 15.6077 74.2027 22.7891 74.9163 24.4185H72.3798C72.2314 23.9659 71.9346 23.1512 71.539 22.1027C71.009 22.0876 70.4721 22.0725 69.7231 22.0725C69.0307 22.0725 68.5008 22.0876 67.9002 22.1027C67.6105 22.9324 67.3703 23.6868 67.1654 24.4185H64.9609C65.4909 23.1965 68.5785 16.0377 69.0589 14.5969H70.8324H70.8253Z" fill="#F7EBDA"/>
<path d="M82.3988 14.5969V16.0226C81.1764 15.8869 80.7949 15.8567 79.3888 15.8265C79.3464 17.0184 79.3323 18.5799 79.3323 19.2663C79.3323 20.1263 79.3323 23.0531 79.4807 24.4185H76.9088C77.036 23.0531 77.0643 20.1263 77.0643 19.2663C77.0643 18.5799 77.0289 17.0184 77.0007 15.8265C75.6088 15.8567 75.2272 15.8793 74.0049 16.0226V14.5969H82.4058H82.3988Z" fill="#F7EBDA"/>
<path d="M91.1879 14.5968V16.0225C89.909 15.8717 88.6372 15.8943 87.3513 15.8943C87.0122 15.8943 86.7366 15.9094 86.2491 15.9245C86.2208 16.8523 86.2067 17.9612 86.2067 18.7306L89.5699 18.6477V20.1337L86.1925 20.0508C86.2067 20.9107 86.2208 22.1403 86.2561 23.1511C87.9943 23.1209 89.7183 23.1134 91.4352 23.0002V24.4184H83.7832C83.9033 23.0531 83.9174 20.1337 83.9174 19.2813C83.9174 18.3233 83.8609 15.7284 83.7973 14.5968H91.1808H91.1879Z" fill="#F7EBDA"/>
</svg>
