<svg width="70" height="19" viewBox="0 0 70 19" fill="none" xmlns="http://www.w3.org/2000/svg">
<path d="M28.63 14.0308H22.9281V10.9682H28.7784C29.5061 11.0587 30.0572 11.7075 30.0572 12.4693C30.0572 13.3067 29.4072 14.0157 28.63 14.0308ZM22.9281 3.98295H28.9409C29.6192 4.11119 30.1067 4.72975 30.1067 5.44638C30.1067 6.16301 29.5838 6.87964 28.8843 6.9777H22.9352V3.98295H22.9281ZM31.4067 8.86357C33.59 8.08659 33.9857 6.13283 33.9786 4.54116C33.9786 2.10463 32.3677 0 27.6055 0H18.71V18.2929H27.5772C32.3677 18.2929 34.134 15.6678 34.134 13.0351C34.134 9.85176 31.4067 8.86357 31.4067 8.86357Z" fill="#F7EBDA"/>
<path d="M54.0518 0V18.3306H69.0802V14.1515H58.2346V10.9531H68.0133V6.93998H58.2346L58.2275 3.99803H69.0731L69.0802 0H54.0518Z" fill="#F7EBDA"/>
<path d="M16.0035 13.9026C15.9399 13.9026 10.3016 14.0233 8.35147 13.8196C5.21437 13.4877 4.09801 11.0059 4.09801 8.98426C4.09801 6.4572 5.70896 4.60151 8.21016 4.24697C9.39717 4.08101 15.8975 4.16399 15.9681 4.16399H16.1236V0H15.9823L8.62703 0.0150869C7.80742 0.0678911 6.45084 0.158413 5.05893 0.761889C3.72354 1.41817 2.56479 2.42145 1.69573 3.66612C0.58644 5.25779 0 7.1512 0 9.12759C0 9.75369 0.0494588 10.3647 0.141311 10.9606C0.671226 13.7366 2.37402 16.0299 4.8187 17.267C5.64537 17.6517 6.91717 18.1194 9.48196 18.2703L10.8668 18.3004H15.9964H16.1306V13.8951H16.0105L16.0035 13.9026Z" fill="#F7EBDA"/>
<path d="M47.5862 5.70266C47.5085 6.30613 46.9503 6.95487 46.2438 6.95487H40.3794V4.02801H46.2438C46.9433 4.02801 47.4944 4.57868 47.5862 5.30285V5.70266ZM45.3041 0.0224304H36.2178V18.3229H40.3935V10.9152C40.3935 10.9152 44.9861 10.9152 44.9932 10.9152C46.3074 10.9378 47.3319 12.0844 47.3319 13.5026V18.3078H51.4158L51.4087 12.4012C51.4087 9.66297 48.9358 8.85582 48.9358 8.85582C48.9358 8.85582 51.4652 8.04867 51.4652 4.81253C51.4581 0.859755 48.2787 0.0224304 45.3041 0.0224304Z" fill="#F7EBDA"/>
</svg>
