<svg width="96" height="25" viewBox="0 0 96 25" fill="none" xmlns="http://www.w3.org/2000/svg">
<path d="M3.37026 1.47901C5.17904 1.47901 5.85027 1.88635 5.85027 2.93489C5.85027 3.214 5.77255 3.46294 5.61004 3.66661C5.26383 4.11167 4.57141 4.33798 3.71648 4.29272H3.67408L3.17243 5.68826H3.68115C4.67739 5.65808 5.54645 5.98999 5.98451 6.57084C6.19648 6.83486 6.2954 7.14414 6.2954 7.47606C6.2954 8.58495 5.39101 9.14316 3.61049 9.14316C3.31374 9.14316 2.82622 9.14316 2.51533 9.12807C2.45174 7.67219 2.44468 5.68826 2.44468 5.09987C2.44468 4.40587 2.47294 2.85946 2.51533 1.53935C2.71317 1.50164 3.05938 1.47146 3.37026 1.47901ZM0.0211966 0.468182C0.091852 1.51672 0.148376 4.14185 0.148376 5.09987C0.148376 5.97491 0.134245 8.93194 0.0141311 10.2143L0 10.3199H4.33118C6.44377 10.3199 8.70475 9.60331 8.70475 7.58921C8.70475 6.32191 7.84982 5.39406 6.24594 4.88111C7.41882 4.54919 8.22429 3.67415 8.22429 2.67087C8.22429 1.03394 6.45084 0.407834 4.7975 0.370117H0.0211966V0.475726V0.468182Z" fill="#004C48"/>
<path d="M18.6887 0.362305H16.5831L16.675 2.86673C16.7103 4.11895 16.7527 5.38625 16.8304 6.62338C16.6891 6.2462 16.569 6.04253 15.9402 5.05434C15.919 5.01662 13.7357 1.41839 12.9727 0.400022L12.9515 0.369848H10.4997V0.467913C10.5774 1.51645 10.6269 4.13403 10.6269 5.0996C10.6269 5.97464 10.6198 8.93922 10.4926 10.2141L10.4785 10.3197H12.6547V10.2216C12.5205 7.78507 12.5205 5.34099 12.5205 2.97234C12.5911 3.25145 12.7042 3.50793 13.0433 4.05106C13.0786 4.1114 16.8163 9.93496 17 10.282L17.0212 10.3197H18.7735L18.7593 10.2141C18.6322 8.93922 18.6251 5.98218 18.6251 5.0996C18.6251 4.13403 18.6816 1.50891 18.7452 0.467913V0.369848H18.6816L18.6887 0.362305Z" fill="#004C48"/>
<path d="M24.397 1.56171C25.6123 1.53908 26.4601 1.80311 26.8699 2.34623C27.0536 2.59517 27.1525 2.89691 27.1525 3.25145C27.1525 4.69225 25.6405 4.99399 24.3758 4.99399L23.86 4.9789C23.86 4.9789 23.7328 4.95627 23.6551 4.94873C23.648 4.61682 23.641 4.18684 23.641 3.68897C23.641 3.05532 23.648 2.3236 23.6692 1.63715C23.8317 1.60698 24.1144 1.5768 24.3899 1.56926M21.2175 0.46037C21.2881 1.50891 21.3376 4.13403 21.3376 5.09205C21.3376 5.97464 21.3305 8.92413 21.1963 10.2065V10.3046H23.7823L23.7681 10.2065C23.6834 9.29376 23.648 7.55122 23.6339 6.20094C23.7399 6.20094 24.1073 6.22357 24.1073 6.22357L24.4747 6.2462C27.8944 6.2462 29.5548 5.26555 29.5548 3.25145C29.5548 0.943151 27.2232 0.415109 25.2731 0.362305H21.2034V0.46037H21.2175Z" fill="#004C48"/>
<path d="M37.6946 1.56171C38.9099 1.53908 39.7577 1.80311 40.1746 2.34623C40.3583 2.59517 40.4502 2.89691 40.4502 3.25145C40.4502 4.69225 38.9452 4.99399 37.6734 4.99399L37.1576 4.9789C37.1576 4.9789 37.0304 4.95627 36.9527 4.94873C36.9457 4.61682 36.9386 4.1793 36.9386 3.68897C36.9386 3.05532 36.9527 2.33115 36.9739 1.63715C37.1364 1.60698 37.412 1.5768 37.6946 1.56926M34.5151 0.46037C34.5858 1.50891 34.6423 4.13403 34.6423 5.09205C34.6423 5.97464 34.6352 8.92413 34.501 10.2065V10.3046H37.087L37.0728 10.2065C36.981 9.29376 36.9527 7.55122 36.9386 6.20094C37.0446 6.20094 37.412 6.22357 37.412 6.22357L37.7794 6.2462C41.192 6.2462 42.8595 5.26555 42.8595 3.25145C42.8595 0.943151 40.5349 0.415109 38.5778 0.362305H34.508V0.46037H34.5151Z" fill="#004C48"/>
<path d="M46.9647 3.29671C47.1696 3.76441 47.6995 5.0996 48.3001 6.66864C48.2082 6.66864 48.1022 6.66864 48.1022 6.66864L46.9647 6.68372C46.9647 6.68372 45.7847 6.66109 45.601 6.65355C46.0815 5.38625 46.5549 4.25473 46.9647 3.28917M46.3359 0.362305H46.2935L46.2723 0.415109C45.7918 1.82574 42.69 9.05991 42.2025 10.1688L42.146 10.3046H44.3716L44.3858 10.2442C44.5765 9.56533 44.8238 8.79589 45.1206 7.96611C45.2054 7.96611 46.9576 7.93594 46.9576 7.93594L48.4697 7.95103C48.4697 7.95103 48.7381 7.96611 48.8017 7.96611C49.2045 9.03728 49.5012 9.85198 49.6355 10.2518L49.6496 10.3046H52.2215L48.074 0.362305H46.3359Z" fill="#004C48"/>
<path d="M53.253 0.460345C53.3165 1.50889 53.3731 4.12647 53.3731 5.09203C53.3731 5.96707 53.366 8.92411 53.2388 10.199L53.2247 10.3046H55.8177V10.199C55.6764 8.91656 55.6694 5.96707 55.6694 5.08449C55.6694 4.39803 55.6976 2.84408 55.7471 1.60695C55.9591 1.57678 56.2487 1.55415 56.4466 1.5466C57.6619 1.52397 58.5168 1.79554 58.9195 2.33112C59.1032 2.58006 59.2021 2.8818 59.2021 3.23634C59.2021 4.38294 58.1918 4.96379 57.252 5.02414C56.9412 5.03923 56.7009 4.99396 56.7009 4.99396L56.5243 4.96379L56.6374 5.14483C57.5417 6.57809 58.9266 9.08252 59.506 10.2668L59.5272 10.3121H62.3039L62.2191 10.1612C62.1202 10.0028 60.3044 7.15139 59.5342 5.92935C59.5342 5.92935 59.506 5.89164 59.4848 5.85392C60.8979 5.40131 61.5903 4.54136 61.5903 3.23634C61.5903 0.935583 59.2587 0.399997 57.3086 0.354736H53.2388L53.2459 0.452801L53.253 0.460345Z" fill="#004C48"/>
<path d="M65.9922 0.354736H63.5051V0.452801C63.5828 1.50134 63.6393 4.12647 63.6393 5.08449C63.6393 5.95953 63.6252 8.91656 63.498 10.199V10.3046H66.0769V10.199C65.9427 8.91656 65.9286 5.96707 65.9286 5.08449C65.9286 4.11892 65.978 1.4938 66.0487 0.452801V0.354736H65.9851H65.9922Z" fill="#004C48"/>
<path d="M71.7643 1.47901C73.5731 1.47901 74.2443 1.88635 74.2443 2.93489C74.2443 3.214 74.1596 3.46294 73.997 3.66661C73.6579 4.11167 72.9655 4.33798 72.1105 4.29272H72.0682L71.5736 5.68826H72.0823C73.0785 5.65808 73.9405 5.98999 74.3857 6.57084C74.5906 6.83486 74.6965 7.14414 74.6965 7.47606C74.6965 8.58495 73.7921 9.14316 72.0116 9.14316C71.7078 9.14316 71.2203 9.14316 70.9165 9.12807C70.8529 7.67219 70.8529 5.68826 70.8529 5.09987C70.8529 4.40587 70.8811 2.85192 70.9235 1.53935C71.1214 1.50164 71.4605 1.47146 71.7714 1.47901M68.4223 0.468182C68.493 1.51672 68.5425 4.14185 68.5425 5.09987C68.5425 5.97491 68.5354 8.93194 68.4082 10.2143V10.3199H72.7252C74.8449 10.3199 77.0988 9.60331 77.0988 7.58921C77.0988 6.32191 76.2439 5.39406 74.64 4.88111C75.8129 4.54919 76.6184 3.67415 76.6184 2.67087C76.6184 1.03394 74.852 0.407834 73.1916 0.370117H68.4153L68.4223 0.468182Z" fill="#004C48"/>
<path d="M82.4054 3.28914C82.6104 3.75684 83.1403 5.09203 83.7479 6.65353C83.6561 6.65353 83.5501 6.66107 83.5501 6.66107L82.4054 6.6837C82.4054 6.6837 81.2326 6.65353 81.0418 6.65353C81.5223 5.38622 81.9956 4.25471 82.4054 3.28914ZM83.4794 0.354736H81.7342L81.713 0.407541C81.2043 1.90869 77.9188 9.54267 77.6433 10.1688L77.5797 10.3046H79.8053L79.8195 10.2442C80.0102 9.5653 80.2646 8.79587 80.5543 7.96609C80.632 7.96609 82.3913 7.93591 82.3913 7.93591L83.9104 7.95854C83.9104 7.95854 84.1718 7.95854 84.2425 7.95854C84.6452 9.02972 84.942 9.83687 85.0692 10.2442L85.0833 10.297H87.6551L83.5147 0.354736H83.4723H83.4794Z" fill="#004C48"/>
<path d="M88.3899 2.93441C88.3899 4.68449 90.0433 5.39357 91.4917 6.01968C92.6222 6.51001 93.788 7.01542 93.788 7.8452C93.788 8.10168 93.7315 8.30535 93.6043 8.45622C93.3358 8.79568 92.7847 8.939 91.9086 8.89374C91.0536 8.84848 90.0715 8.55428 88.9905 8.0187L88.5383 7.7924V8.17711V9.96491L88.835 10.0328L89.0117 10.0705C89.5557 10.2063 90.5944 10.4703 91.6401 10.4703C94.3744 10.4703 96.0066 9.31617 96.0066 7.38505C96.0066 5.5897 94.325 4.87308 92.8341 4.23942C91.739 3.77173 90.6014 3.28895 90.6014 2.52706C90.6014 2.30076 90.6014 1.63693 92.0075 1.63693C93.0602 1.63693 94.0918 2.08954 94.6429 2.33847L95.1799 2.57232V2.19515V0.39226L94.65 0.286652C94.1201 0.181043 93.2439 0 92.3254 0C89.9726 0 88.397 1.17678 88.397 2.91932" fill="#004C48"/>
<path d="M4.03442 14.5969C5.96332 14.5969 8.26668 15.1702 8.26668 17.4484C8.26668 18.7232 7.57426 19.5756 6.19648 20.0282C6.39432 20.4582 8.6129 24.0564 8.9803 24.4261H6.23181C5.63124 23.204 4.26052 20.7373 3.26428 19.1381C3.43385 19.1758 3.68821 19.206 3.9779 19.206C4.77631 19.206 5.91386 18.595 5.91386 17.4559C5.91386 16.0377 4.30998 15.7812 3.50451 15.7812C3.09471 15.7812 2.7061 15.8114 2.50827 15.8416C2.45881 17.0636 2.43055 18.595 2.43055 19.2814C2.43055 20.1489 2.43055 23.0531 2.57892 24.4336H0C0.12718 23.0682 0.155442 21.3181 0.155442 19.2814C0.155442 17.569 0.141311 15.5172 0.0282622 14.612H4.03442V14.5969Z" fill="#004C48"/>
<path d="M17.2823 14.5969V16.0226C16.0034 15.8718 14.7316 15.8944 13.4457 15.8944C13.1066 15.8944 12.831 15.9095 12.3435 15.9246C12.3223 16.8524 12.3011 17.9613 12.3011 18.7307L15.6643 18.6478V20.1338L12.287 20.0508C12.3011 20.9108 12.3152 22.1404 12.3506 23.1512C14.0887 23.121 15.8127 23.1135 17.5296 23.0003V24.4185H9.87761C9.99773 23.0531 10.0119 20.1338 10.0119 19.2814C10.0119 18.3234 9.95533 15.7284 9.89174 14.5969H17.2752H17.2823Z" fill="#004C48"/>
<path d="M24.3549 20.8127C23.7473 19.2663 23.2244 17.9462 23.0407 17.4861C22.6168 18.4365 22.1575 19.5605 21.67 20.8127C22.0657 20.8278 22.6027 20.8429 23.0407 20.8429C23.4788 20.8429 23.9098 20.8278 24.3549 20.8127ZM24.1359 14.5969C24.4892 15.6077 27.5132 22.7891 28.2268 24.4185H25.6903C25.549 23.9659 25.2452 23.1512 24.8495 22.1027C24.3266 22.0876 23.7826 22.0725 23.0407 22.0725C22.3412 22.0725 21.8184 22.0876 21.2107 22.1027C20.9211 22.9324 20.6808 23.6868 20.4759 24.4185H18.2715C18.7943 23.1965 21.882 16.0377 22.3695 14.5969H24.1429H24.1359Z" fill="#004C48"/>
<path d="M36.2462 24.4185H29.0464C29.1736 23.0531 29.1736 20.1338 29.1736 19.2814C29.1736 18.3309 29.1242 15.7284 29.0464 14.5969H31.5688C31.5052 15.736 31.4487 18.3159 31.4487 19.2814C31.4487 19.9302 31.4628 21.7557 31.5052 23.1512H32.8618C34.2537 23.1512 35.2782 23.0682 36.2533 22.9853V24.4185H36.2462Z" fill="#004C48"/>
<path d="M47.968 14.5969V16.0226C46.6962 15.8718 45.4173 15.8944 44.1314 15.8944C43.7852 15.8944 43.5167 15.9095 43.0292 15.9246C43.0009 16.8524 42.9868 17.9613 42.9868 18.7307L46.35 18.6478V20.1338L42.9727 20.0508C42.9868 20.9108 43.0009 22.1404 43.0362 23.1512C44.7744 23.121 46.4913 23.1135 48.2153 23.0003V24.4185H40.5704C40.6905 23.0531 40.7046 20.1338 40.7046 19.2814C40.7046 18.3234 40.6481 15.7284 40.5845 14.5969H47.968Z" fill="#004C48"/>
<path d="M53.3943 14.4001C54.5248 14.4001 55.5634 14.5812 56.2205 14.7773V16.9347C55.4221 16.4595 54.553 16.0144 53.0904 16.0144C51.7763 16.0144 51.6985 16.5274 51.6985 16.897C51.6985 18.6773 57.033 18.4434 57.033 21.5589C57.033 23.4825 55.4291 24.614 52.723 24.614C51.4724 24.614 50.3843 24.3726 49.6637 24.1086V21.9662C51.3029 22.796 52.3415 23.0751 53.2742 23.0751C54.3128 23.0751 54.8498 22.7508 54.8498 22.0266C54.8498 20.103 49.5153 20.3897 49.5153 17.1158C49.5153 15.3883 51.0626 14.4077 53.3943 14.4077" fill="#004C48"/>
<path d="M65.865 14.5969V16.0226C64.6426 15.8869 64.2611 15.8567 62.855 15.8265C62.8197 17.0184 62.8056 18.5799 62.8056 19.2663C62.8056 20.1263 62.8056 23.0531 62.9469 24.4185H60.375C60.5022 23.0531 60.5305 20.1263 60.5305 19.2663C60.5305 18.5799 60.4951 17.0184 60.4669 15.8265C59.075 15.8567 58.6934 15.8793 57.4711 16.0226V14.5969H65.872H65.865Z" fill="#004C48"/>
<path d="M71.051 20.8127C70.4434 19.2663 69.9206 17.9462 69.7369 17.4861C69.32 18.4365 68.8607 19.5605 68.3732 20.8127C68.7689 20.8278 69.3059 20.8429 69.7369 20.8429C70.1679 20.8429 70.6059 20.8278 71.051 20.8127ZM70.825 14.5969C71.1782 15.6077 74.2023 22.7891 74.9159 24.4185H72.3794C72.231 23.9659 71.9342 23.1512 71.5386 22.1027C71.0087 22.0876 70.4717 22.0725 69.7227 22.0725C69.0303 22.0725 68.5004 22.0876 67.8998 22.1027C67.6101 22.9324 67.3699 23.6868 67.165 24.4185H64.9606C65.4905 23.1965 68.5781 16.0377 69.0586 14.5969H70.832H70.825Z" fill="#004C48"/>
<path d="M82.3983 14.5969V16.0226C81.176 15.8869 80.7945 15.8567 79.3884 15.8265C79.346 17.0184 79.3319 18.5799 79.3319 19.2663C79.3319 20.1263 79.3319 23.0531 79.4803 24.4185H76.9084C77.0356 23.0531 77.0639 20.1263 77.0639 19.2663C77.0639 18.5799 77.0285 17.0184 77.0003 15.8265C75.6084 15.8567 75.2268 15.8793 74.0045 16.0226V14.5969H82.4054H82.3983Z" fill="#004C48"/>
<path d="M91.1878 14.5969V16.0226C89.909 15.8718 88.6372 15.8944 87.3513 15.8944C87.0121 15.8944 86.7366 15.9095 86.249 15.9246C86.2208 16.8524 86.2066 17.9613 86.2066 18.7307L89.5698 18.6478V20.1338L86.1925 20.0508C86.2066 20.9108 86.2208 22.1404 86.2561 23.1512C87.9942 23.121 89.7182 23.1135 91.4351 23.0003V24.4185H83.7832C83.9033 23.0531 83.9174 20.1338 83.9174 19.2814C83.9174 18.3234 83.8609 15.7284 83.7973 14.5969H91.1808H91.1878Z" fill="#004C48"/>
</svg>
