<svg width="70" height="19" viewBox="0 0 70 19" fill="none" xmlns="http://www.w3.org/2000/svg">
<path d="M28.6296 14.0308H22.9277V10.9682H28.7779C29.5057 11.0587 30.0568 11.7075 30.0568 12.4693C30.0568 13.3067 29.4068 14.0157 28.6296 14.0308ZM22.9277 3.98295H28.9404C29.6187 4.11119 30.1063 4.72975 30.1063 5.44638C30.1063 6.16301 29.5834 6.87964 28.8839 6.9777H22.9347V3.98295H22.9277ZM31.4063 8.86357C33.5896 8.08659 33.9852 6.13283 33.9782 4.54116C33.9782 2.10463 32.3672 0 27.6051 0H18.7095V18.2929H27.5768C32.3672 18.2929 34.1336 15.6678 34.1336 13.0351C34.1336 9.85176 31.4063 8.86357 31.4063 8.86357Z" fill="#004C48"/>
<path d="M54.0514 0V18.3306H69.0798V14.1515H58.2342V10.9531H68.0129V6.93998H58.2342L58.2271 3.99803H69.0727L69.0798 0H54.0514Z" fill="#004C48"/>
<path d="M16.0035 13.9026C15.9399 13.9026 10.3016 14.0233 8.35147 13.8196C5.21437 13.4877 4.09801 11.0059 4.09801 8.98426C4.09801 6.4572 5.70896 4.60151 8.21016 4.24697C9.39717 4.08101 15.8975 4.16399 15.9681 4.16399H16.1236V0H15.9823L8.62703 0.0150869C7.80742 0.0678911 6.45084 0.158413 5.05893 0.761889C3.72354 1.41817 2.56479 2.42145 1.69573 3.66612C0.58644 5.25779 0 7.1512 0 9.12759C0 9.75369 0.0494588 10.3647 0.141311 10.9606C0.671226 13.7366 2.37402 16.0299 4.8187 17.267C5.64537 17.6517 6.91717 18.1194 9.48196 18.2703L10.8668 18.3004H15.9964H16.1306V13.8951H16.0105L16.0035 13.9026Z" fill="#004C48"/>
<path d="M47.5864 5.70269C47.5087 6.30616 46.9505 6.9549 46.244 6.9549H40.3796V4.02804H46.244C46.9435 4.02804 47.4946 4.57871 47.5864 5.30288V5.70269ZM45.3043 0.0224609H36.218V18.3229H40.3937V10.9152C40.3937 10.9152 44.9863 10.9152 44.9934 10.9152C46.3076 10.9378 47.3321 12.0845 47.3321 13.5026V18.3078H51.416L51.4089 12.4013C51.4089 9.663 48.936 8.85585 48.936 8.85585C48.936 8.85585 51.4654 8.0487 51.4654 4.81256C51.4584 0.859785 48.2789 0.0224609 45.3043 0.0224609Z" fill="#004C48"/>
</svg>
