<svg width="210" height="18" viewBox="0 0 210 18" fill="none" xmlns="http://www.w3.org/2000/svg">
<path d="M199.427 17.6986V9.69479C199.427 9.19785 199.377 6.78681 199.28 4.8727H199.33C199.87 6.41411 200.876 8.27761 201.464 9.39801L205.732 17.7009H210V0.29908H206.517V8.22929C206.517 9.24847 206.567 11.5859 206.665 13.2515H206.615C206.027 11.6595 204.971 9.69709 204.286 8.32822L200.213 0.29908H195.945V17.7009H199.427V17.6986ZM185.504 15.0391C184.033 15.0391 182.634 14.5928 181.799 13.3988C181.111 12.4049 180.72 10.8888 180.72 9C180.72 7.26074 181.161 5.39494 181.921 4.45169C182.755 3.40721 184.03 2.96089 185.601 2.96089C187.172 2.96089 188.348 3.43252 189.134 4.5023C189.87 5.49617 190.262 7.23543 190.262 9.0023C190.262 10.7692 189.944 12.3842 189.134 13.477C188.373 14.5215 187.098 15.0437 185.504 15.0437M185.504 17.9977C190.95 17.9977 194.115 14.319 194.115 8.9977C194.115 3.67638 190.95 0 185.504 0C180.057 0 176.87 3.72929 176.87 8.9977C176.87 14.7906 180.06 17.9977 185.504 17.9977ZM174.895 0.29908H171.19V17.7009H174.895V0.29908ZM163.512 17.6986V3.45552H168.983V0.29908H154.338V3.45552H159.809V17.6986H163.514H163.512ZM145.445 17.9977C149.223 17.9977 152.067 16.1342 153.393 12.704L149.565 11.6848C149.075 13.6748 147.749 15.0414 145.445 15.0414C143.556 15.0414 142.378 14.4939 141.594 13.3758C140.859 12.306 140.661 10.99 140.661 9C140.661 7.00997 141.029 5.39494 141.815 4.35046C142.6 3.30598 143.876 2.95859 145.445 2.95859C147.799 2.95859 149.1 4.37577 149.493 6.56365L153.271 5.84356C152.315 1.8911 149.223 0.00230061 145.445 0.00230061C139.901 0.00230061 136.811 3.7316 136.811 9C136.811 14.7929 140.001 18 145.445 18M135.54 17.6986V14.6917H127.174V10.4149H134.632V7.40798H127.174V3.30598H135.54V0.29908H123.471V17.7009H135.54V17.6986ZM110.442 17.6986V9.69479C110.442 9.19785 110.392 6.78681 110.294 4.8727H110.344C110.885 6.41411 111.89 8.27761 112.478 9.39801L116.746 17.7009H121.014V0.29908H117.532V8.22929C117.532 9.24847 117.582 11.5859 117.679 13.2515H117.63C117.042 11.6595 115.986 9.69709 115.3 8.32822L111.225 0.29908H106.957V17.7009H110.44L110.442 17.6986ZM93.803 17.6986V9.69479C93.803 9.19785 93.7531 6.78681 93.6555 4.8727H93.7054C94.2457 6.41411 95.2515 8.27761 95.8395 9.39801L100.108 17.7009H104.376V0.29908H100.893V8.22929C100.893 9.24847 100.943 11.5859 101.041 13.2515H100.991C100.403 11.6595 99.347 9.69709 98.6591 8.32822L94.5886 0.29908H90.3204V17.7009H93.803V17.6986ZM79.7591 15.0391C78.288 15.0391 76.8895 14.5928 76.0541 13.3988C75.3684 12.4049 74.9757 10.8888 74.9757 9C74.9757 7.26074 75.4184 5.39494 76.1767 4.45169C77.0098 3.40721 78.2857 2.96089 79.8568 2.96089C81.4278 2.96089 82.6038 3.43252 83.3893 4.5023C84.1249 5.49617 84.5176 7.23543 84.5176 9.0023C84.5176 10.7692 84.1998 12.3842 83.3893 13.477C82.6288 14.5215 81.3529 15.0437 79.7591 15.0437M79.7591 17.9977C85.2055 17.9977 88.3703 14.319 88.3703 8.9977C88.3703 3.67638 85.2033 0 79.7591 0C74.315 0 71.1253 3.72929 71.1253 8.9977C71.1253 14.7906 74.315 17.9977 79.7591 17.9977ZM61.7468 17.9977C65.5246 17.9977 68.3692 16.1342 69.695 12.704L65.8674 11.6848C65.377 13.6748 64.0511 15.0414 61.7468 15.0414C59.858 15.0414 58.6797 14.4939 57.8964 13.3758C57.1609 12.306 56.9634 10.99 56.9634 9C56.9634 7.00997 57.3311 5.39494 58.1167 4.35046C58.9022 3.30598 60.1781 2.95859 61.7468 2.95859C64.1011 2.95859 65.402 4.37577 65.7947 6.56365L69.5724 5.84356C68.6167 1.8911 65.5246 0.00230061 61.7468 0.00230061C56.2028 0.00230061 53.113 3.7316 53.113 9C53.113 14.7929 56.3027 18 61.7468 18M45.8027 17.6986V14.6917H37.4368V10.4149H44.8946V7.40798H37.4368V3.30598H45.8027V0.29908H33.7339V17.7009H45.8027V17.6986ZM20.6799 17.6986V10.4908H27.3272V17.6986H31.0323V0.29908H27.3272V7.33436H20.6799V0.29908H16.9748V17.7009H20.6799V17.6986ZM9.17416 17.6986V3.45552H14.6455V0.29908H0V3.45552H5.46908V17.6986H9.17416Z" fill="#004C48"/>
</svg>
