<svg width="350" height="32" viewBox="0 0 350 32" fill="none" xmlns="http://www.w3.org/2000/svg">
<path d="M332.379 31.348V17.4238C332.379 16.5593 332.296 12.3648 332.133 9.03485H332.216C333.117 11.7164 334.793 14.9583 335.773 16.9075L342.887 31.352H350V1.07817H344.196V14.8743C344.196 16.6473 344.279 20.7137 344.442 23.6114H344.358C343.378 20.8418 341.619 17.4278 340.476 15.0464L333.688 1.07817H326.575V31.352H332.379V31.348ZM309.173 26.7213C306.721 26.7213 304.39 25.9448 302.998 23.8676C301.851 22.1386 301.201 19.501 301.201 16.2151C301.201 13.1893 301.935 9.94339 303.202 8.30242C304.591 6.48535 306.717 5.70889 309.336 5.70889C311.954 5.70889 313.914 6.52938 315.223 8.39047C316.449 10.1195 317.104 13.1453 317.104 16.2191C317.104 19.2929 316.574 22.1025 315.223 24.0037C313.956 25.8207 311.829 26.7293 309.173 26.7293M309.173 31.8683C318.25 31.8683 323.525 25.4685 323.525 16.2111C323.525 6.95363 318.25 0.557861 309.173 0.557861C300.096 0.557861 294.783 7.04568 294.783 16.2111C294.783 26.289 300.099 31.8683 309.173 31.8683ZM291.491 1.07817H285.316V31.352H291.491V1.07817ZM272.519 31.348V6.5694H281.638V1.07817H257.229V6.5694H266.348V31.348H272.523H272.519ZM242.408 31.8683C248.704 31.8683 253.445 28.6264 255.655 22.6589L249.276 20.8858C248.458 24.3479 246.249 26.7253 242.408 26.7253C239.26 26.7253 237.296 25.7727 235.991 23.8276C234.765 21.9665 234.436 19.6771 234.436 16.2151C234.436 12.753 235.049 9.94338 236.358 8.12632C237.667 6.30925 239.794 5.70489 242.408 5.70489C246.332 5.70489 248.5 8.17034 249.155 11.9766L255.451 10.7238C253.858 3.8478 248.704 0.561864 242.408 0.561864C233.168 0.561864 228.018 7.04968 228.018 16.2151C228.018 26.293 233.335 31.8723 242.408 31.8723M225.899 31.348V26.1169H211.956V18.6765H224.386V13.4454H211.956V6.30925H225.899V1.07817H205.785V31.352H225.899V31.348ZM184.07 31.348V17.4238C184.07 16.5593 183.986 12.3648 183.824 9.03485H183.907C184.808 11.7164 186.484 14.9583 187.464 16.9075L194.577 31.352H201.691V1.07817H195.887V14.8743C195.887 16.6473 195.97 20.7137 196.132 23.6114H196.049C195.069 20.8418 193.31 17.4278 192.167 15.0464L185.375 1.07817H178.262V31.352H184.066L184.07 31.348ZM156.338 31.348V17.4238C156.338 16.5593 156.255 12.3648 156.092 9.03485H156.176C157.076 11.7164 158.752 14.9583 159.732 16.9075L166.846 31.352H173.959V1.07817H168.155V14.8743C168.155 16.6473 168.238 20.7137 168.401 23.6114H168.318C167.338 20.8418 165.578 17.4278 164.432 15.0464L157.648 1.07817H150.534V31.352H156.338V31.348ZM132.932 26.7213C130.48 26.7213 128.149 25.9448 126.757 23.8676C125.614 22.1386 124.959 19.501 124.959 16.2151C124.959 13.1893 125.697 9.94339 126.961 8.30242C128.35 6.48535 130.476 5.70889 133.095 5.70889C135.713 5.70889 137.673 6.52938 138.982 8.39047C140.208 10.1195 140.863 13.1453 140.863 16.2191C140.863 19.2929 140.333 22.1025 138.982 24.0037C137.715 25.8207 135.588 26.7293 132.932 26.7293M132.932 31.8683C142.009 31.8683 147.284 25.4685 147.284 16.2111C147.284 6.95363 142.005 0.557861 132.932 0.557861C123.858 0.557861 118.542 7.04568 118.542 16.2111C118.542 26.289 123.858 31.8683 132.932 31.8683ZM102.911 31.8683C109.208 31.8683 113.949 28.6264 116.158 22.6589L109.779 20.8858C108.962 24.3479 106.752 26.7253 102.911 26.7253C99.7633 26.7253 97.7995 25.7727 96.4941 23.8276C95.2681 21.9665 94.9389 19.6771 94.9389 16.2151C94.9389 12.753 95.5519 9.94338 96.8611 8.12632C98.1703 6.30925 100.297 5.70489 102.911 5.70489C106.835 5.70489 109.003 8.17034 109.658 11.9766L115.954 10.7238C114.361 3.8478 109.208 0.561864 102.911 0.561864C93.6714 0.561864 88.5216 7.04968 88.5216 16.2151C88.5216 26.293 93.8378 31.8723 102.911 31.8723M76.3378 31.348V26.1169H62.3946V18.6765H74.8243V13.4454H62.3946V6.30925H76.3378V1.07817H56.2232V31.352H76.3378V31.348ZM34.4665 31.348V18.8086H45.5454V31.348H51.7205V1.07817H45.5454V13.3174H34.4665V1.07817H28.2914V31.352H34.4665V31.348ZM15.2903 31.348V6.5694H24.4092V1.07817H0V6.5694H9.11514V31.348H15.2903Z" fill="#F7EBDA"/>
</svg>
